####
#
# OBJ File Generated by Meshlab
#
####
# Object HEAD1.obj
#
# Vertices: 164
# Faces: 324
#
####
vn -3.013130 -2.365880 -2.057073
v 0.045000 -0.065548 0.044839
vn 2.152960 -3.991241 -3.475371
v 0.050000 -0.065548 0.044839
vn 2.084478 -4.505053 -2.597384
v 0.050000 -0.073316 0.055026
vn -2.884666 -2.699216 -1.556230
v 0.045000 -0.073316 0.055026
vn 2.126192 -5.009766 -1.414278
v 0.050000 -0.078241 0.066853
vn -2.931129 -2.994381 -0.891288
v 0.045000 -0.078241 0.066853
vn 2.886832 -3.003426 -0.836341
v -0.045000 -0.078241 0.066853
vn 0.589949 -5.431486 -1.913514
v -0.045000 -0.079740 0.074905
vn -2.138245 -5.204192 -0.007431
v -0.050000 -0.079998 0.079543
vn -0.729114 -5.458206 -1.835276
v 0.045000 -0.079740 0.074905
vn 2.147095 -5.206620 0.013418
v 0.050000 -0.079998 0.079543
vn -2.084479 -5.017197 -1.367352
v -0.050000 -0.078241 0.066853
vn -2.084478 -4.505054 -2.597384
v -0.050000 -0.073316 0.055026
vn 2.884666 -2.699217 -1.556231
v -0.045000 -0.073316 0.055026
vn -2.152960 -3.991241 -3.475371
v -0.050000 -0.065548 0.044839
vn 3.013133 -2.365880 -2.057074
v -0.045000 -0.065548 0.044839
vn 2.084478 -5.041367 1.275357
v 0.050000 -0.078473 0.092263
vn -2.084477 -5.041366 1.275357
v -0.050000 -0.078473 0.092263
vn 2.084479 -4.551808 2.514549
v 0.050000 -0.073766 0.104178
vn -2.084478 -4.551807 2.514549
v -0.050000 -0.073766 0.104178
vn 2.084479 -3.763429 3.588665
v 0.050000 -0.066186 0.114505
vn -2.084478 -3.763429 3.588664
v -0.050000 -0.066186 0.114505
vn 2.119910 -2.893482 4.378266
v 0.050000 -0.056230 0.122568
vn -2.119909 -2.893482 4.378265
v -0.050000 -0.056230 0.122568
vn -2.175118 -3.611556 -3.900405
v -0.050000 -0.001097 -0.020322
vn 3.053075 -2.131547 -2.303647
v -0.045000 -0.001097 -0.020322
vn -2.128795 -3.028711 -4.298186
v -0.050000 0.012399 -0.031744
vn 2.964559 -1.802504 -2.558018
v -0.045000 0.012399 -0.031744
vn -2.128795 -2.224419 -4.764394
v -0.050000 0.027695 -0.040611
vn 2.964559 -1.323838 -2.835476
v -0.045000 0.027695 -0.040611
vn -2.150283 -1.377315 -5.076770
v -0.050000 0.044314 -0.046645
vn 2.987038 -0.838513 -3.017893
v -0.045000 0.044314 -0.046645
vn -2.965130 -0.809886 -3.023198
v 0.045000 0.044314 -0.046645
vn -0.671259 -2.054718 -5.430834
v 0.045000 0.057265 -0.049186
vn 2.173600 -0.399260 -5.245296
v 0.050000 0.061736 -0.049658
vn 0.738660 -2.012853 -5.443356
v -0.045000 0.057265 -0.049186
vn -2.178571 -0.386737 -5.247240
v -0.050000 0.061736 -0.049658
vn 2.128795 -1.350591 -5.081672
v 0.050000 0.044314 -0.046645
vn 2.128795 -2.224419 -4.764394
v 0.050000 0.027695 -0.040611
vn -2.964559 -1.323838 -2.835476
v 0.045000 0.027695 -0.040611
vn 2.128795 -3.028710 -4.298185
v 0.050000 0.012399 -0.031744
vn -2.964559 -1.802504 -2.558018
v 0.045000 0.012399 -0.031744
vn 2.175118 -3.611556 -3.900405
v 0.050000 -0.001097 -0.020322
vn -3.053075 -2.131547 -2.303647
v 0.045000 -0.001097 -0.020322
vn -2.128795 0.495082 -5.234728
v -0.050000 0.079416 -0.049556
vn 2.128795 0.495082 -5.234729
v 0.050000 0.079416 -0.049556
vn -2.128795 1.409235 -5.065722
v -0.050000 0.096801 -0.046342
vn 2.128795 1.409235 -5.065722
v 0.050000 0.096801 -0.046342
vn -2.128795 2.279337 -4.738366
v -0.050000 0.113349 -0.040116
vn 2.128795 2.279337 -4.738367
v 0.050000 0.113349 -0.040116
vn -2.128795 3.078188 -4.262892
v -0.050000 0.128542 -0.031073
vn 2.128795 3.078188 -4.262892
v 0.050000 0.128542 -0.031073
vn -2.128795 3.780817 -3.654164
v -0.050000 0.141905 -0.019496
vn 2.128795 3.780817 -3.654164
v 0.050000 0.141905 -0.019496
vn -2.128795 4.365261 -2.931209
v -0.050000 0.153020 -0.005747
vn 2.128795 4.365261 -2.931209
v 0.050000 0.153020 -0.005747
vn -2.128795 4.813251 -2.116626
v -0.050000 0.161540 0.009745
vn 2.128795 4.813251 -2.116626
v 0.050000 0.161540 0.009745
vn -2.128795 5.110782 -1.235880
v -0.050000 0.167198 0.026496
vn 2.128795 5.110782 -1.235879
v 0.050000 0.167198 0.026496
vn -2.128795 5.248554 -0.316502
v -0.050000 0.169819 0.043981
vn 2.128795 5.248554 -0.316502
v 0.050000 0.169819 0.043981
vn -2.128795 5.222260 0.612770
v -0.050000 0.169319 0.061654
vn 2.128795 5.222260 0.612770
v 0.050000 0.169319 0.061654
vn -2.128795 5.032722 1.522889
v -0.050000 0.165714 0.078963
vn 2.128795 5.032722 1.522889
v 0.050000 0.165714 0.078963
vn -2.128795 4.685867 2.385402
v -0.050000 0.159117 0.095366
vn 2.128795 4.685867 2.385402
v 0.050000 0.159117 0.095366
vn -2.128795 4.192534 3.173349
v -0.050000 0.149735 0.110352
vn 2.128795 4.192534 3.173349
v 0.050000 0.149735 0.110352
vn -2.128795 3.568147 3.862101
v -0.050000 0.137860 0.123451
vn 2.128795 3.568147 3.862101
v 0.050000 0.137860 0.123451
vn -2.128795 2.832222 4.430125
v -0.050000 0.123864 0.134254
vn 2.128795 2.832222 4.430125
v 0.050000 0.123864 0.134254
vn -2.128795 2.007764 4.859668
v -0.050000 0.108184 0.142423
vn 2.128795 2.007763 4.859667
v 0.050000 0.108184 0.142423
vn -2.142068 1.186547 5.139502
v -0.050000 0.091311 0.147703
vn 2.142068 1.186546 5.139502
v 0.050000 0.091311 0.147703
vn -2.155341 0.459289 5.270545
v -0.050000 0.066052 0.151542
vn 2.155341 0.459289 5.270545
v 0.050000 0.066052 0.151542
vn -2.155341 -0.216369 5.286092
v -0.050000 0.040510 0.152130
vn 2.155341 -0.216369 5.286092
v 0.050000 0.040510 0.152130
vn -2.155341 -0.888500 5.215377
v -0.050000 0.015101 0.149457
vn 2.155341 -0.888500 5.215376
v 0.050000 0.015101 0.149457
vn -2.155342 -1.546130 5.059553
v -0.050000 -0.009760 0.143566
vn 2.155342 -1.546130 5.059553
v 0.050000 -0.009760 0.143566
vn -2.155341 -2.178528 4.821162
v -0.050000 -0.033667 0.134554
vn 2.155341 -2.178528 4.821162
v 0.050000 -0.033667 0.134554
vn 5.269924 2.206556 0.667698
v 0.080000 0.137000 0.070274
vn 5.269924 2.054480 1.045860
v 0.080000 0.132382 0.081756
vn 5.316479 -1.537267 -1.664413
v 0.080000 0.020232 0.000774
vn 5.269925 1.838182 1.391329
v 0.080000 0.125814 0.092246
vn 5.269925 1.564424 1.693306
v 0.080000 0.117502 0.101415
vn 5.283342 0.517477 2.235250
v 0.080000 0.084918 0.118392
vn 5.296759 0.198196 2.274380
v 0.080000 0.063447 0.121655
vn 5.296760 -0.093370 2.281089
v 0.080000 0.041737 0.122155
vn 5.296760 -0.383411 2.250573
v 0.080000 0.020139 0.119883
vn 5.269927 2.289657 0.268664
v 0.080000 0.139523 0.058158
vn 5.269925 -1.327914 -1.884504
v 0.080000 0.029679 -0.007221
vn 5.269925 -0.975278 -2.088910
v 0.080000 0.040387 -0.013428
vn 5.269924 1.241764 1.942352
v 0.080000 0.107705 0.108977
vn 5.269925 0.880286 2.130682
v 0.080000 0.096729 0.114696
vn 5.224656 -2.257645 -0.615283
v 0.080000 -0.049296 0.074741
vn 5.260706 -1.279065 1.926938
v 0.080000 -0.040492 0.097027
vn 5.224654 -1.693473 1.614831
v 0.080000 -0.044474 0.093802
vn 5.296760 -0.667196 2.183331
v 0.080000 -0.000993 0.114876
vn 5.296760 -0.940092 2.080459
v 0.080000 -0.021313 0.107215
vn 5.293843 -1.727794 -1.496404
v 0.080000 -0.044219 0.065935
vn 5.224652 -2.027192 -1.168773
v 0.080000 -0.047327 0.070010
vn 5.269925 -0.592155 -2.228017
v 0.080000 0.052020 -0.017651
vn 5.269924 -0.190524 -2.297480
v 0.080000 0.064215 -0.019761
vn 5.269925 0.217065 -2.295124
v 0.080000 0.076591 -0.019689
vn 5.269925 2.240780 -0.541862
v 0.080000 0.138039 0.033547
vn 5.269922 1.657668 -1.602138
v 0.080000 0.120333 0.001353
vn 5.269925 2.110330 -0.928017
v 0.080000 0.134078 0.021822
vn 5.269924 1.913913 -1.285164
v 0.080000 0.128114 0.010977
vn 5.269924 2.301186 -0.138768
v 0.080000 0.139873 0.045786
vn 5.269924 1.349606 -1.869030
v 0.080000 0.110979 -0.006751
vn 5.269925 0.617868 -2.221024
v 0.080000 0.088761 -0.017439
vn 5.269925 0.999356 -2.077497
v 0.080000 0.100344 -0.013081
vn 5.224653 -2.048229 1.131501
v 0.080000 -0.047506 0.089671
vn 5.224654 -2.268521 0.573888
v 0.080000 -0.049389 0.084905
vn 5.224653 -2.339889 -0.021401
v 0.080000 -0.049999 0.079817
vn -5.316480 -1.537267 -1.664413
v -0.080000 0.020232 0.000774
vn -5.296761 -0.667196 2.183331
v -0.080000 -0.000993 0.114876
vn -5.296760 -0.383411 2.250573
v -0.080000 0.020139 0.119883
vn -5.269924 -0.190523 -2.297479
v -0.080000 0.064215 -0.019761
vn -5.269925 -0.592156 -2.228017
v -0.080000 0.052020 -0.017651
vn -5.269923 -0.975278 -2.088910
v -0.080000 0.040387 -0.013428
vn -5.296759 -0.940092 2.080459
v -0.080000 -0.021313 0.107215
vn -5.293843 -1.727794 -1.496404
v -0.080000 -0.044219 0.065935
vn -5.260705 -1.279065 1.926937
v -0.080000 -0.040492 0.097027
vn -5.269924 2.054480 1.045860
v -0.080000 0.132382 0.081756
vn -5.269924 1.838182 1.391329
v -0.080000 0.125814 0.092246
vn -5.269925 1.564424 1.693306
v -0.080000 0.117502 0.101415
vn -5.269924 2.301186 -0.138768
v -0.080000 0.139873 0.045786
vn -5.269925 2.240780 -0.541862
v -0.080000 0.138039 0.033547
vn -5.269925 2.110330 -0.928017
v -0.080000 0.134078 0.021822
vn -5.269924 1.913913 -1.285164
v -0.080000 0.128114 0.010977
vn -5.269925 1.657668 -1.602138
v -0.080000 0.120333 0.001353
vn -5.269925 1.349606 -1.869030
v -0.080000 0.110979 -0.006751
vn -5.269925 0.217065 -2.295124
v -0.080000 0.076591 -0.019689
vn -5.269924 -1.327914 -1.884504
v -0.080000 0.029679 -0.007221
vn -5.269925 2.206556 0.667698
v -0.080000 0.137000 0.070274
vn -5.269925 2.289657 0.268664
v -0.080000 0.139523 0.058158
vn -5.269925 0.999356 -2.077497
v -0.080000 0.100344 -0.013081
vn -5.269925 0.617868 -2.221024
v -0.080000 0.088761 -0.017439
vn -5.296760 -0.093369 2.281089
v -0.080000 0.041737 0.122155
vn -5.296760 0.198196 2.274380
v -0.080000 0.063447 0.121655
vn -5.283342 0.517478 2.235250
v -0.080000 0.084918 0.118392
vn -5.224653 -2.027192 -1.168773
v -0.080000 -0.047327 0.070010
vn -5.224654 -2.048229 1.131501
v -0.080000 -0.047506 0.089671
vn -5.224654 -1.693473 1.614831
v -0.080000 -0.044474 0.093802
vn -5.224653 -2.257645 -0.615283
v -0.080000 -0.049296 0.074741
vn -5.224653 -2.339888 -0.021401
v -0.080000 -0.049999 0.079817
vn -5.224653 -2.268521 0.573888
v -0.080000 -0.049389 0.084905
vn -5.269925 0.880287 2.130682
v -0.080000 0.096729 0.114696
vn -5.269924 1.241764 1.942352
v -0.080000 0.107705 0.108977
vn -3.010693 -1.741639 -2.606546
v 0.045000 0.012500 0.021651
vn 3.010693 -1.741638 -2.606545
v -0.045000 0.012500 0.021651
vn 3.010692 -2.606546 -1.741639
v -0.045000 0.021651 0.012500
vn -3.010692 -2.606545 -1.741638
v 0.045000 0.021651 0.012500
vn 2.879794 -2.202436 -2.202436
v -0.045000 0.017678 0.017678
vn -2.879794 -2.202437 -2.202436
v 0.045000 0.017678 0.017678
# 164 vertices, 0 vertices normals

f 1//1 2//2 3//3
f 1//1 3//3 4//4
f 4//4 3//3 5//5
f 4//4 5//5 6//6
f 7//7 8//8 9//9
f 6//6 5//5 10//10
f 10//10 5//5 11//11
f 10//10 11//11 8//8
f 9//9 12//12 7//7
f 7//7 12//12 13//13
f 7//7 13//13 14//14
f 14//14 13//13 15//15
f 14//14 15//15 16//16
f 8//8 11//11 9//9
f 9//9 11//11 17//17
f 9//9 17//17 18//18
f 18//18 17//17 19//19
f 18//18 19//19 20//20
f 20//20 19//19 21//21
f 20//20 21//21 22//22
f 22//22 21//21 23//23
f 22//22 23//23 24//24
f 25//25 26//26 15//15
f 15//15 26//26 16//16
f 26//26 25//25 27//27
f 26//26 27//27 28//28
f 28//28 27//27 29//29
f 28//28 29//29 30//30
f 30//30 29//29 31//31
f 30//30 31//31 32//32
f 33//33 34//34 35//35
f 32//32 31//31 36//36
f 36//36 31//31 37//37
f 36//36 37//37 34//34
f 35//35 38//38 33//33
f 33//33 38//38 39//39
f 33//33 39//39 40//40
f 40//40 39//39 41//41
f 40//40 41//41 42//42
f 42//42 41//41 43//43
f 42//42 43//43 44//44
f 34//34 37//37 35//35
f 35//35 37//37 45//45
f 35//35 45//45 46//46
f 46//46 45//45 47//47
f 46//46 47//47 48//48
f 48//48 47//47 49//49
f 48//48 49//49 50//50
f 50//50 49//49 51//51
f 50//50 51//51 52//52
f 52//52 51//51 53//53
f 52//52 53//53 54//54
f 54//54 53//53 55//55
f 54//54 55//55 56//56
f 56//56 55//55 57//57
f 56//56 57//57 58//58
f 58//58 57//57 59//59
f 58//58 59//59 60//60
f 60//60 59//59 61//61
f 60//60 61//61 62//62
f 62//62 61//61 63//63
f 62//62 63//63 64//64
f 64//64 63//63 65//65
f 64//64 65//65 66//66
f 66//66 65//65 67//67
f 66//66 67//67 68//68
f 68//68 67//67 69//69
f 68//68 69//69 70//70
f 70//70 69//69 71//71
f 70//70 71//71 72//72
f 72//72 71//71 73//73
f 72//72 73//73 74//74
f 74//74 73//73 75//75
f 74//74 75//75 76//76
f 76//76 75//75 77//77
f 76//76 77//77 78//78
f 78//78 77//77 79//79
f 78//78 79//79 80//80
f 80//80 79//79 81//81
f 80//80 81//81 82//82
f 82//82 81//81 83//83
f 82//82 83//83 84//84
f 84//84 83//83 85//85
f 84//84 85//85 86//86
f 86//86 85//85 87//87
f 86//86 87//87 88//88
f 88//88 87//87 24//24
f 88//88 24//24 23//23
f 2//2 1//1 43//43
f 43//43 1//1 44//44
f 89//89 90//90 91//91
f 91//91 90//90 92//92
f 91//91 92//92 93//93
f 94//94 95//95 91//91
f 91//91 95//95 96//96
f 91//91 96//96 97//97
f 89//89 91//91 98//98
f 98//98 91//91 99//99
f 98//98 99//99 100//100
f 93//93 101//101 91//91
f 91//91 101//101 102//102
f 91//91 102//102 94//94
f 103//103 104//104 105//105
f 97//97 106//106 91//91
f 91//91 106//106 107//107
f 91//91 107//107 108//108
f 108//108 107//107 104//104
f 108//108 104//104 109//109
f 109//109 104//104 103//103
f 100//100 110//110 98//98
f 98//98 110//110 111//111
f 98//98 111//111 112//112
f 113//113 114//114 115//115
f 115//115 114//114 116//116
f 113//113 117//117 114//114
f 114//114 117//117 98//98
f 114//114 98//98 118//118
f 112//112 119//119 98//98
f 98//98 119//119 120//120
f 98//98 120//120 118//118
f 105//105 121//121 103//103
f 103//103 121//121 122//122
f 103//103 122//122 123//123
f 124//124 125//125 126//126
f 127//127 128//128 129//129
f 125//125 124//124 130//130
f 130//130 124//124 131//131
f 130//130 131//131 132//132
f 133//133 124//124 134//134
f 134//134 124//124 135//135
f 136//136 137//137 124//124
f 124//124 137//137 138//138
f 138//138 139//139 124//124
f 124//124 139//139 140//140
f 124//124 140//140 141//141
f 127//127 129//129 142//142
f 142//142 129//129 143//143
f 142//142 143//143 124//124
f 133//133 144//144 124//124
f 124//124 144//144 145//145
f 124//124 145//145 136//136
f 141//141 146//146 124//124
f 124//124 146//146 147//147
f 124//124 147//147 142//142
f 126//126 148//148 124//124
f 124//124 148//148 149//149
f 124//124 149//149 150//150
f 151//151 152//152 131//131
f 131//131 152//152 153//153
f 131//131 153//153 132//132
f 151//151 154//154 152//152
f 152//152 154//154 155//155
f 152//152 155//155 156//156
f 150//150 157//157 124//124
f 124//124 157//157 158//158
f 124//124 158//158 135//135
f 159//159 10//10 160//160
f 160//160 10//10 8//8
f 161//161 36//36 162//162
f 162//162 36//36 34//34
f 32//32 36//36 161//161
f 32//32 161//161 30//30
f 160//160 8//8 7//7
f 7//7 14//14 160//160
f 160//160 14//14 16//16
f 160//160 16//16 163//163
f 163//163 16//16 26//26
f 163//163 26//26 161//161
f 161//161 26//26 28//28
f 161//161 28//28 30//30
f 6//6 10//10 159//159
f 34//34 33//33 162//162
f 162//162 33//33 40//40
f 6//6 159//159 4//4
f 40//40 42//42 162//162
f 162//162 42//42 44//44
f 162//162 44//44 164//164
f 164//164 44//44 159//159
f 159//159 44//44 1//1
f 159//159 1//1 4//4
f 161//161 162//162 163//163
f 163//163 162//162 164//164
f 163//163 164//164 160//160
f 160//160 164//164 159//159
f 150//150 77//77 75//75
f 150//150 75//75 157//157
f 157//157 75//75 73//73
f 157//157 73//73 158//158
f 158//158 73//73 71//71
f 158//158 71//71 135//135
f 135//135 71//71 69//69
f 135//135 69//69 134//134
f 134//134 69//69 67//67
f 134//134 67//67 133//133
f 133//133 67//67 65//65
f 133//133 65//65 144//144
f 144//144 65//65 63//63
f 144//144 63//63 145//145
f 145//145 63//63 61//61
f 145//145 61//61 136//136
f 136//136 61//61 59//59
f 136//136 59//59 137//137
f 137//137 59//59 57//57
f 137//137 57//57 138//138
f 138//138 57//57 55//55
f 138//138 55//55 139//139
f 139//139 55//55 53//53
f 139//139 53//53 140//140
f 140//140 53//53 51//51
f 140//140 51//51 141//141
f 141//141 51//51 49//49
f 141//141 49//49 146//146
f 146//146 49//49 47//47
f 146//146 47//47 147//147
f 147//147 47//47 45//45
f 147//147 45//45 142//142
f 142//142 45//45 37//37
f 142//142 37//37 127//127
f 127//127 37//37 31//31
f 127//127 31//31 128//128
f 128//128 31//31 29//29
f 128//128 29//29 129//129
f 129//129 29//29 27//27
f 129//129 27//27 143//143
f 143//143 27//27 25//25
f 143//143 25//25 124//124
f 132//132 24//24 87//87
f 132//132 87//87 130//130
f 130//130 87//87 85//85
f 130//130 85//85 125//125
f 125//125 85//85 83//83
f 125//125 83//83 126//126
f 126//126 83//83 81//81
f 126//126 81//81 148//148
f 148//148 81//81 79//79
f 148//148 79//79 149//149
f 149//149 79//79 77//77
f 149//149 77//77 150//150
f 15//15 131//131 25//25
f 25//25 131//131 124//124
f 131//131 15//15 13//13
f 131//131 13//13 151//151
f 151//151 13//13 12//12
f 151//151 12//12 154//154
f 154//154 12//12 9//9
f 154//154 9//9 155//155
f 155//155 9//9 18//18
f 155//155 18//18 156//156
f 156//156 18//18 20//20
f 156//156 20//20 152//152
f 152//152 20//20 22//22
f 152//152 22//22 153//153
f 153//153 22//22 24//24
f 153//153 24//24 132//132
f 91//91 43//43 41//41
f 91//91 41//41 99//99
f 99//99 41//41 39//39
f 99//99 39//39 100//100
f 100//100 39//39 38//38
f 100//100 38//38 110//110
f 110//110 38//38 35//35
f 110//110 35//35 111//111
f 111//111 35//35 46//46
f 111//111 46//46 112//112
f 112//112 46//46 48//48
f 112//112 48//48 119//119
f 119//119 48//48 50//50
f 119//119 50//50 120//120
f 120//120 50//50 52//52
f 120//120 52//52 118//118
f 118//118 52//52 54//54
f 118//118 54//54 114//114
f 114//114 54//54 56//56
f 114//114 56//56 116//116
f 116//116 56//56 58//58
f 116//116 58//58 115//115
f 115//115 58//58 60//60
f 115//115 60//60 113//113
f 113//113 60//60 62//62
f 113//113 62//62 117//117
f 117//117 62//62 64//64
f 117//117 64//64 98//98
f 98//98 64//64 66//66
f 98//98 66//66 89//89
f 89//89 66//66 68//68
f 89//89 68//68 90//90
f 90//90 68//68 70//70
f 90//90 70//70 92//92
f 92//92 70//70 72//72
f 92//92 72//72 93//93
f 93//93 72//72 74//74
f 93//93 74//74 101//101
f 101//101 74//74 76//76
f 101//101 76//76 102//102
f 102//102 76//76 78//78
f 102//102 78//78 94//94
f 94//94 78//78 80//80
f 94//94 80//80 95//95
f 95//95 80//80 82//82
f 95//95 82//82 96//96
f 96//96 82//82 84//84
f 96//96 84//84 97//97
f 97//97 84//84 86//86
f 97//97 86//86 106//106
f 106//106 86//86 88//88
f 106//106 88//88 107//107
f 107//107 88//88 23//23
f 107//107 23//23 104//104
f 108//108 2//2 91//91
f 91//91 2//2 43//43
f 104//104 23//23 21//21
f 104//104 21//21 105//105
f 105//105 21//21 19//19
f 105//105 19//19 121//121
f 121//121 19//19 17//17
f 121//121 17//17 122//122
f 122//122 17//17 11//11
f 122//122 11//11 123//123
f 123//123 11//11 5//5
f 123//123 5//5 103//103
f 103//103 5//5 3//3
f 103//103 3//3 109//109
f 109//109 3//3 2//2
f 109//109 2//2 108//108
# 324 faces, 0 coords texture

# End of File
