####
#
# OBJ File Generated by Meshlab
#
####
# Object NECK1.obj
#
# Vertices: 184
# Faces: 356
#
####
vn -2.324251 0.273807 -4.339486
v -0.035603 0.058436 -0.022165
vn -2.210524 0.610234 -4.660605
v -0.032835 0.061151 -0.023382
vn -4.666769 1.559944 -3.323313
v -0.052947 0.020000 -0.037704
vn -2.005687 1.370229 -5.016714
v -0.027197 0.066972 -0.024816
vn -1.267861 1.768659 -5.295001
v -0.024495 0.070000 -0.025000
vn -1.814566 4.665829 -2.059216
v -0.024153 0.070000 -0.025331
vn 1.951404 1.272136 5.076159
v 0.028415 0.065669 0.024622
vn 1.251690 1.656584 5.400306
v 0.024495 0.070000 0.025000
vn 1.693561 4.616399 2.189412
v 0.021636 0.070000 0.027512
vn 4.961579 1.559852 2.864713
v 0.056292 0.020000 0.032500
vn 2.382237 0.107608 4.260886
v 0.037040 0.057051 0.021385
vn 4.329647 1.560219 3.751731
v 0.049124 0.020000 0.042566
vn 2.245743 0.610894 4.620218
v 0.032807 0.061180 0.023392
vn 2.123749 0.928721 4.797235
v 0.029971 0.064047 0.024281
vn 5.673706 1.554691 0.820439
v 0.064338 0.020000 0.009250
vn 2.806396 4.602955 -0.318751
v 0.048892 0.046009 0.007030
vn 5.414445 1.559124 1.874256
v 0.061425 0.020000 0.021259
vn 2.777015 4.503721 -0.490478
v 0.048676 0.046205 0.007669
vn 3.059530 4.388653 -0.588730
v 0.047062 0.047682 0.011265
vn 5.676394 1.695216 0.990432
v 0.045000 0.049577 0.014419
vn 2.951268 -0.693529 3.157695
v 0.044275 0.050247 0.015324
vn 2.570519 -0.303704 3.737274
v 0.040793 0.053490 0.018773
vn 5.730439 1.548420 -0.272690
v 0.064926 0.020000 -0.003093
vn 2.846010 1.689374 0.029026
v 0.050000 0.045000 0.000000
vn 2.957922 4.653723 -0.205665
v 0.049717 0.045257 0.003575
vn 3.060340 4.404696 0.587820
v 0.046987 0.047750 -0.011399
vn 2.804257 4.558060 0.442490
v 0.048682 0.046200 -0.007652
vn 5.575092 1.548505 -1.352795
v 0.063168 0.020000 -0.015324
vn 2.935471 4.648621 0.218733
v 0.049429 0.045519 -0.005069
vn 2.898011 4.696696 0.174858
v 0.049876 0.045113 -0.002376
vn 5.660427 1.689014 -1.060921
v 0.045000 0.049577 -0.014419
vn 5.216784 1.550385 -2.383782
v 0.059126 0.020000 -0.027002
vn 2.753249 -0.655060 -3.222573
v 0.043030 0.051402 -0.016706
vn 2.248255 0.626828 -4.612994
v 0.032835 0.061151 -0.023382
vn 2.367046 0.341727 -4.368536
v 0.035603 0.058436 -0.022165
vn 4.669967 1.553190 -3.326712
v 0.052947 0.020000 -0.037704
vn 2.463905 -0.073598 -4.026404
v 0.038254 0.055890 -0.020638
vn 2.554319 -0.293248 -3.702203
v 0.040793 0.053490 -0.018773
vn 2.143234 1.044025 -4.865268
v 0.029971 0.064047 -0.024281
vn 3.952970 1.557625 -4.149188
v 0.044855 0.020000 -0.047043
vn 2.030307 1.366469 -5.004481
v 0.027204 0.066964 -0.024815
vn -3.953375 1.560332 -4.146236
v -0.044855 0.020000 -0.047043
vn -2.112833 0.983392 -4.857571
v -0.029971 0.064047 -0.024281
vn -5.670855 1.673525 -1.057557
v -0.045000 0.049577 -0.014419
vn -5.211646 1.559378 -2.380316
v -0.059126 0.020000 -0.027002
vn -3.064375 4.379920 0.548958
v -0.046987 0.047750 -0.011399
vn -5.568214 1.558873 -1.351201
v -0.063168 0.020000 -0.015324
vn -2.901132 4.588398 0.303691
v -0.048682 0.046200 -0.007652
vn -2.756196 -0.657097 -3.216733
v -0.043039 0.051393 -0.016697
vn -2.496283 -0.407842 -3.675062
v -0.040905 0.053386 -0.018681
vn -2.443881 -0.077694 -4.032366
v -0.038240 0.055903 -0.020647
vn -5.726722 1.553560 -0.278468
v -0.064926 0.020000 -0.003093
vn -5.675896 1.551506 0.820262
v -0.064338 0.020000 0.009250
vn -2.954925 4.658599 -0.202333
v -0.049717 0.045257 0.003575
vn -2.843156 1.694495 0.024457
v -0.050000 0.045000 0.000000
vn -2.911779 4.669271 0.144601
v -0.049876 0.045113 -0.002376
vn -3.156942 4.584862 0.289515
v -0.049429 0.045519 -0.005069
vn -5.676394 1.695216 0.990432
v -0.045000 0.049577 0.014419
vn -3.059530 4.388653 -0.588730
v -0.047062 0.047682 0.011265
vn -5.419532 1.552558 1.873140
v -0.061425 0.020000 0.021259
vn -2.753221 4.541290 -0.479289
v -0.048676 0.046205 0.007669
vn -2.792341 4.639176 -0.365610
v -0.048892 0.046009 0.007030
vn -4.964643 1.552895 2.868854
v -0.056292 0.020000 0.032500
vn -2.564834 -0.295292 3.738047
v -0.040793 0.053490 0.018773
vn -2.952861 -0.674738 3.124341
v -0.044275 0.050247 0.015324
vn -4.329494 1.558108 3.754100
v -0.049124 0.020000 0.042566
vn -2.335964 0.343891 4.405247
v -0.035603 0.058436 0.022165
vn -2.417829 0.013769 4.091529
v -0.037040 0.057051 0.021385
vn -1.693562 4.616398 2.189412
v -0.021636 0.070000 0.027512
vn -1.258965 1.653726 5.400032
v -0.024495 0.070000 0.025000
vn -2.012749 1.287828 5.075196
v -0.028415 0.065669 0.024622
vn 3.541216 1.560769 4.503023
v 0.040180 0.020000 0.051093
vn 1.268616 4.612315 2.460772
v 0.016038 0.070000 0.031109
vn 2.625019 1.560769 5.091826
v 0.029785 0.020000 0.057774
vn 0.779987 4.612313 2.656390
v 0.009861 0.070000 0.033582
vn 1.613947 1.560769 5.496598
v 0.018313 0.020000 0.062367
vn 0.263166 4.612315 2.755998
v 0.003327 0.070000 0.034842
vn 0.544543 1.560769 5.702710
v 0.006179 0.020000 0.064706
vn -0.263166 4.612314 2.755999
v -0.003327 0.070000 0.034842
vn -0.544543 1.560769 5.702709
v -0.006179 0.020000 0.064706
vn -0.779987 4.612314 2.656390
v -0.009861 0.070000 0.033582
vn -1.613947 1.560769 5.496599
v -0.018313 0.020000 0.062367
vn -1.268616 4.612314 2.460771
v -0.016038 0.070000 0.031109
vn -2.625019 1.560769 5.091826
v -0.029785 0.020000 0.057774
vn -3.541216 1.560769 4.503022
v -0.040180 0.020000 0.051093
vn -2.230073 0.689585 4.671761
v -0.032792 0.061194 0.023398
vn -1.496783 4.612313 -2.329040
v -0.018922 0.070000 -0.029444
vn -3.097142 1.560769 -4.819246
v -0.035142 0.020000 -0.054681
vn -1.028960 4.612314 -2.570219
v -0.013008 0.070000 -0.032493
vn -2.129124 1.560769 -5.318295
v -0.024158 0.020000 -0.060344
vn -0.523949 4.612314 -2.718504
v -0.006624 0.070000 -0.034368
vn -1.084153 1.560769 -5.625124
v -0.012301 0.020000 -0.063825
vn 0.000000 1.661121 -2.768535
v 0.000000 0.070000 -0.035000
vn 0.000000 1.560769 -5.728649
v 0.000000 0.020000 -0.065000
vn 0.523949 4.612313 -2.718504
v 0.006624 0.070000 -0.034368
vn 1.084153 1.560769 -5.625124
v 0.012301 0.020000 -0.063825
vn 1.028960 4.612315 -2.570218
v 0.013008 0.070000 -0.032493
vn 2.129124 1.560769 -5.318294
v 0.024158 0.020000 -0.060344
vn 1.496783 4.612314 -2.329040
v 0.018922 0.070000 -0.029444
vn 3.097142 1.560769 -4.819246
v 0.035142 0.020000 -0.054681
vn 1.797779 4.680117 -2.063713
v 0.024153 0.070000 -0.025331
vn 1.266436 1.800323 -5.270558
v 0.024495 0.070000 -0.025000
vn 0.000000 2.951195 0.000000
v 0.000000 0.070000 -0.035000
vn -1.162325 -2.951193 -2.903347
v -0.024158 0.000000 -0.060344
vn -0.591858 -2.951192 -3.070852
v -0.012301 0.000000 -0.063825
vn 0.000000 -6.283191 0.000000
v 0.000000 0.000000 0.000000
vn 0.000000 -2.951194 0.000000
v 0.000000 0.000000 -0.065000
vn 0.591858 -2.951192 -3.070852
v 0.012301 0.000000 -0.063825
vn -2.547478 -2.951193 -1.814051
v -0.052947 0.000000 -0.037704
vn -2.158131 -2.951193 -2.263382
v -0.044855 0.000000 -0.047043
vn -1.690783 -2.951193 -2.630909
v -0.035142 0.000000 -0.054681
vn -3.123825 -2.951193 -0.148806
v -0.064926 0.000000 -0.003093
vn -3.039212 -2.951193 -0.737305
v -0.063168 0.000000 -0.015324
vn -2.844754 -2.951193 -1.299155
v -0.059126 0.000000 -0.027002
vn -2.708380 -2.951193 1.563684
v -0.056292 0.000000 0.032500
vn -2.955365 -2.951193 1.022862
v -0.061425 0.000000 0.021259
vn -3.095535 -2.951193 0.445071
v -0.064338 0.000000 0.009250
vn -1.433043 -2.951193 2.779715
v -0.029785 0.000000 0.057774
vn -1.933210 -2.951193 2.458277
v -0.040180 0.000000 0.051093
vn -2.363507 -2.951193 2.047990
v -0.049124 0.000000 0.042566
vn 0.297275 -2.951193 3.113206
v 0.006179 0.000000 0.064706
vn -0.297275 -2.951193 3.113206
v -0.006179 0.000000 0.064706
vn -0.881081 -2.951193 3.000687
v -0.018313 0.000000 0.062367
vn 1.933210 -2.951193 2.458277
v 0.040180 0.000000 0.051093
vn 1.433043 -2.951193 2.779715
v 0.029785 0.000000 0.057774
vn 0.881081 -2.951193 3.000687
v 0.018313 0.000000 0.062367
vn 2.955365 -2.951193 1.022862
v 0.061425 0.000000 0.021259
vn 2.708380 -2.951193 1.563684
v 0.056292 0.000000 0.032500
vn 2.363507 -2.951193 2.047990
v 0.049124 0.000000 0.042566
vn 3.039212 -2.951193 -0.737305
v 0.063168 0.000000 -0.015324
vn 3.123825 -2.951193 -0.148806
v 0.064926 0.000000 -0.003093
vn 3.095535 -2.951193 0.445071
v 0.064338 0.000000 0.009250
vn 2.158131 -2.951193 -2.263382
v 0.044855 0.000000 -0.047043
vn 2.547478 -2.951193 -1.814051
v 0.052947 0.000000 -0.037704
vn 2.844754 -2.951193 -1.299155
v 0.059126 0.000000 -0.027002
vn 1.162325 -2.951193 -2.903347
v 0.024158 0.000000 -0.060344
vn 1.690782 -2.951193 -2.630909
v 0.035142 0.000000 -0.054681
vn -0.000000 0.000000 -3.127367
v 0.000000 0.000000 -0.065000
vn 2.926358 -2.035065 2.368964
v 0.045000 0.053490 0.018773
vn 2.932009 -1.450785 2.763499
v 0.045000 0.058436 0.022165
vn 2.933616 -0.737685 3.033093
v 0.045000 0.064047 0.024281
vn 3.032795 -0.179946 3.131228
v 0.045000 0.070000 0.025000
vn 2.909029 -0.740655 -3.029929
v 0.045000 0.064047 -0.024281
vn 2.922221 -1.434000 -2.770913
v 0.045000 0.058436 -0.022165
vn 3.025102 -0.187702 -3.130324
v 0.045000 0.070000 -0.025000
vn 2.955588 -2.017314 -2.387177
v 0.045000 0.053490 -0.018773
vn -2.987006 -2.037209 -2.373252
v -0.045000 0.053490 -0.018773
vn -2.951834 -1.435305 -2.773852
v -0.045000 0.058436 -0.022165
vn -2.935074 -0.739029 -3.032922
v -0.045000 0.064047 -0.024281
vn -3.035583 -0.178415 -3.131390
v -0.045000 0.070000 -0.025000
vn -3.021371 -0.188389 3.130255
v -0.045000 0.070000 0.025000
vn -2.909221 -0.741080 3.029841
v -0.045000 0.064047 0.024281
vn -2.916780 -1.437331 2.768745
v -0.045000 0.058436 0.022165
vn -2.926357 -2.035065 2.368964
v -0.045000 0.053490 0.018773
vn 2.984514 0.245727 3.122253
v 0.045000 0.160000 0.025000
vn 2.984513 0.245727 -3.122254
v 0.045000 0.160000 -0.025000
vn 2.827433 0.958853 -2.951046
v 0.045000 0.167725 -0.023776
vn 2.827430 2.510310 -1.823846
v 0.045000 0.180225 -0.014695
vn 2.827430 2.510311 1.823847
v 0.045000 0.180225 0.014695
vn 2.827435 1.823846 2.510311
v 0.045000 0.174695 0.020225
vn 2.827436 2.951048 -0.958853
v 0.045000 0.183776 -0.007725
vn 2.827431 3.102915 0.000000
v 0.045000 0.185000 -0.000000
vn 2.827435 2.951047 0.958852
v 0.045000 0.183776 0.007725
vn 2.827435 1.823847 -2.510312
v 0.045000 0.174695 -0.020225
vn 2.827433 0.958854 2.951047
v 0.045000 0.167725 0.023776
vn 2.963167 2.980122 0.927638
v 0.045000 0.046200 -0.007652
vn 2.964342 2.980835 -0.925672
v 0.045000 0.046200 0.007652
vn 2.951656 3.117504 0.000074
v 0.045000 0.045000 -0.000000
vn -2.827435 1.823847 2.510312
v -0.045000 0.174695 0.020225
vn -2.827431 2.510310 1.823846
v -0.045000 0.180225 0.014695
vn -2.827429 2.510311 -1.823847
v -0.045000 0.180225 -0.014695
vn -2.984513 0.245727 -3.122253
v -0.045000 0.160000 -0.025000
vn -2.984514 0.245727 3.122254
v -0.045000 0.160000 0.025000
vn -2.827433 0.958854 -2.951047
v -0.045000 0.167725 -0.023776
vn -2.827435 1.823846 -2.510311
v -0.045000 0.174695 -0.020225
vn -2.827433 0.958853 2.951046
v -0.045000 0.167725 0.023776
vn -2.827436 2.951048 0.958853
v -0.045000 0.183776 0.007725
vn -2.827431 3.102915 -0.000000
v -0.045000 0.185000 -0.000000
vn -2.827435 2.951047 -0.958852
v -0.045000 0.183776 -0.007725
vn -2.964342 2.980835 -0.925672
v -0.045000 0.046200 0.007652
vn -2.899906 2.990299 0.873256
v -0.045000 0.046200 -0.007652
vn -2.944540 3.115053 0.017434
v -0.045000 0.045000 0.000000
vn 0.000000 3.005090 -0.034737
v 0.050000 0.045000 -0.000000
vn 0.000000 3.005090 -0.034737
v -0.050000 0.045000 0.000000
# 184 vertices, 0 vertices normals

f 1//1 2//2 3//3
f 4//4 5//5 6//6
f 7//7 8//8 9//9
f 10//10 11//11 12//12
f 12//12 11//11 13//13
f 12//12 13//13 14//14
f 15//15 16//16 17//17
f 17//17 16//16 18//18
f 17//17 18//18 19//19
f 19//19 20//20 17//17
f 17//17 20//20 21//21
f 17//17 21//21 10//10
f 10//10 21//21 22//22
f 10//10 22//22 11//11
f 23//23 24//24 15//15
f 15//15 24//24 25//25
f 15//15 25//25 16//16
f 26//26 27//27 28//28
f 28//28 27//27 29//29
f 28//28 29//29 23//23
f 23//23 29//29 30//30
f 23//23 30//30 24//24
f 26//26 28//28 31//31
f 31//31 28//28 32//32
f 31//31 32//32 33//33
f 34//34 35//35 36//36
f 36//36 35//35 37//37
f 36//36 37//37 32//32
f 32//32 37//37 38//38
f 32//32 38//38 33//33
f 34//34 36//36 39//39
f 39//39 36//36 40//40
f 39//39 40//40 41//41
f 3//3 2//2 42//42
f 42//42 2//2 43//43
f 42//42 43//43 4//4
f 44//44 45//45 46//46
f 46//46 45//45 47//47
f 46//46 47//47 48//48
f 44//44 49//49 45//45
f 45//45 49//49 50//50
f 45//45 50//50 3//3
f 3//3 50//50 51//51
f 3//3 51//51 1//1
f 52//52 53//53 54//54
f 54//54 55//55 52//52
f 52//52 55//55 56//56
f 52//52 56//56 47//47
f 47//47 56//56 57//57
f 47//47 57//57 48//48
f 58//58 59//59 60//60
f 60//60 59//59 61//61
f 60//60 61//61 53//53
f 53//53 61//61 62//62
f 53//53 62//62 54//54
f 63//63 64//64 60//60
f 60//60 64//64 65//65
f 60//60 65//65 58//58
f 66//66 67//67 63//63
f 63//63 67//67 68//68
f 63//63 68//68 64//64
f 69//69 70//70 71//71
f 14//14 7//7 12//12
f 12//12 7//7 9//9
f 12//12 9//9 72//72
f 72//72 9//9 73//73
f 72//72 73//73 74//74
f 74//74 73//73 75//75
f 74//74 75//75 76//76
f 76//76 75//75 77//77
f 76//76 77//77 78//78
f 78//78 77//77 79//79
f 78//78 79//79 80//80
f 80//80 79//79 81//81
f 80//80 81//81 82//82
f 82//82 81//81 83//83
f 82//82 83//83 84//84
f 84//84 83//83 69//69
f 84//84 69//69 85//85
f 85//85 69//69 71//71
f 85//85 71//71 66//66
f 66//66 71//71 86//86
f 66//66 86//86 67//67
f 4//4 6//6 42//42
f 42//42 6//6 87//87
f 42//42 87//87 88//88
f 88//88 87//87 89//89
f 88//88 89//89 90//90
f 90//90 89//89 91//91
f 90//90 91//91 92//92
f 92//92 91//91 93//93
f 92//92 93//93 94//94
f 94//94 93//93 95//95
f 94//94 95//95 96//96
f 96//96 95//95 97//97
f 96//96 97//97 98//98
f 98//98 97//97 99//99
f 98//98 99//99 100//100
f 100//100 99//99 101//101
f 100//100 101//101 40//40
f 40//40 101//101 102//102
f 40//40 102//102 41//41
f 6//6 5//5 101//101
f 101//101 5//5 102//102
f 97//97 95//95 103//103
f 91//91 89//89 101//101
f 101//101 89//89 87//87
f 101//101 87//87 6//6
f 91//91 101//101 103//103
f 103//103 101//101 99//99
f 103//103 99//99 97//97
f 8//8 70//70 9//9
f 9//9 70//70 69//69
f 9//9 69//69 83//83
f 83//83 81//81 9//9
f 9//9 81//81 79//79
f 9//9 79//79 73//73
f 73//73 79//79 77//77
f 73//73 77//77 75//75
f 104//104 105//105 106//106
f 106//106 105//105 107//107
f 106//106 107//107 108//108
f 109//109 110//110 106//106
f 106//106 110//110 111//111
f 106//106 111//111 104//104
f 112//112 113//113 106//106
f 106//106 113//113 114//114
f 106//106 114//114 109//109
f 115//115 116//116 106//106
f 106//106 116//116 117//117
f 106//106 117//117 112//112
f 118//118 119//119 106//106
f 106//106 119//119 120//120
f 106//106 120//120 115//115
f 121//121 122//122 106//106
f 106//106 122//122 123//123
f 106//106 123//123 118//118
f 124//124 125//125 106//106
f 106//106 125//125 126//126
f 106//106 126//126 121//121
f 127//127 128//128 106//106
f 106//106 128//128 129//129
f 106//106 129//129 124//124
f 130//130 131//131 106//106
f 106//106 131//131 132//132
f 106//106 132//132 127//127
f 133//133 134//134 106//106
f 106//106 134//134 135//135
f 106//106 135//135 130//130
f 108//108 136//136 106//106
f 106//106 136//136 137//137
f 106//106 137//137 133//133
f 138//138 96//96 108//108
f 108//108 96//96 98//98
f 108//108 98//98 136//136
f 136//136 98//98 100//100
f 136//136 100//100 137//137
f 137//137 100//100 40//40
f 137//137 40//40 133//133
f 133//133 40//40 36//36
f 133//133 36//36 134//134
f 134//134 36//36 32//32
f 134//134 32//32 135//135
f 135//135 32//32 28//28
f 135//135 28//28 130//130
f 130//130 28//28 23//23
f 130//130 23//23 131//131
f 131//131 23//23 15//15
f 131//131 15//15 132//132
f 132//132 15//15 17//17
f 132//132 17//17 127//127
f 127//127 17//17 10//10
f 127//127 10//10 128//128
f 128//128 10//10 12//12
f 128//128 12//12 129//129
f 129//129 12//12 72//72
f 129//129 72//72 124//124
f 124//124 72//72 74//74
f 124//124 74//74 125//125
f 125//125 74//74 76//76
f 125//125 76//76 126//126
f 126//126 76//76 78//78
f 126//126 78//78 121//121
f 121//121 78//78 80//80
f 121//121 80//80 122//122
f 122//122 80//80 82//82
f 122//122 82//82 123//123
f 123//123 82//82 84//84
f 123//123 84//84 118//118
f 118//118 84//84 85//85
f 118//118 85//85 119//119
f 119//119 85//85 66//66
f 119//119 66//66 120//120
f 120//120 66//66 63//63
f 120//120 63//63 115//115
f 115//115 63//63 60//60
f 115//115 60//60 116//116
f 116//116 60//60 53//53
f 116//116 53//53 117//117
f 117//117 53//53 52//52
f 117//117 52//52 112//112
f 112//112 52//52 47//47
f 112//112 47//47 113//113
f 113//113 47//47 45//45
f 113//113 45//45 114//114
f 114//114 45//45 3//3
f 114//114 3//3 109//109
f 109//109 3//3 42//42
f 109//109 42//42 110//110
f 110//110 42//42 88//88
f 110//110 88//88 111//111
f 111//111 88//88 90//90
f 111//111 90//90 104//104
f 104//104 90//90 92//92
f 104//104 92//92 105//105
f 105//105 92//92 94//94
f 105//105 94//94 138//138
f 138//138 94//94 96//96
f 21//21 20//20 139//139
f 21//21 139//139 22//22
f 22//22 139//139 140//140
f 22//22 140//140 11//11
f 11//11 140//140 13//13
f 13//13 140//140 141//141
f 13//13 141//141 14//14
f 14//14 141//141 7//7
f 7//7 141//141 142//142
f 7//7 142//142 8//8
f 143//143 144//144 35//35
f 35//35 34//34 143//143
f 143//143 34//34 39//39
f 143//143 39//39 145//145
f 145//145 39//39 41//41
f 145//145 41//41 102//102
f 31//31 33//33 146//146
f 146//146 33//33 38//38
f 146//146 38//38 144//144
f 144//144 38//38 37//37
f 144//144 37//37 35//35
f 44//44 147//147 49//49
f 49//49 147//147 50//50
f 50//50 147//147 51//51
f 51//51 147//147 148//148
f 51//51 148//148 1//1
f 1//1 148//148 2//2
f 2//2 148//148 149//149
f 2//2 149//149 43//43
f 43//43 149//149 4//4
f 4//4 149//149 150//150
f 4//4 150//150 5//5
f 151//151 152//152 70//70
f 70//70 152//152 71//71
f 153//153 67//67 152//152
f 152//152 67//67 86//86
f 152//152 86//86 71//71
f 58//58 65//65 154//154
f 154//154 65//65 64//64
f 154//154 64//64 153//153
f 153//153 64//64 68//68
f 153//153 68//68 67//67
f 140//140 139//139 146//146
f 146//146 139//139 20//20
f 146//146 20//20 31//31
f 144//144 143//143 142//142
f 142//142 143//143 145//145
f 142//142 145//145 155//155
f 155//155 145//145 156//156
f 155//155 156//156 157//157
f 144//144 142//142 146//146
f 146//146 142//142 141//141
f 146//146 141//141 140//140
f 158//158 159//159 160//160
f 158//158 161//161 159//159
f 159//159 161//161 162//162
f 159//159 162//162 163//163
f 157//157 164//164 155//155
f 155//155 164//164 158//158
f 155//155 158//158 165//165
f 165//165 158//158 160//160
f 31//31 20//20 166//166
f 166//166 20//20 167//167
f 166//166 167//167 168//168
f 169//169 170//170 171//171
f 150//150 151//151 172//172
f 172//172 151//151 173//173
f 172//172 173//173 174//174
f 174//174 173//173 175//175
f 154//154 150//150 149//149
f 154//154 153//153 150//150
f 150//150 153//153 152//152
f 150//150 152//152 151//151
f 175//175 173//173 171//171
f 171//171 173//173 176//176
f 171//171 176//176 169//169
f 170//170 177//177 171//171
f 171//171 177//177 178//178
f 171//171 178//178 179//179
f 149//149 148//148 154//154
f 154//154 148//148 147//147
f 154//154 147//147 58//58
f 58//58 147//147 44//44
f 58//58 44//44 180//180
f 180//180 44//44 181//181
f 180//180 181//181 182//182
f 150//150 172//172 5//5
f 5//5 172//172 156//156
f 5//5 156//156 102//102
f 102//102 156//156 145//145
f 156//156 172//172 174//174
f 156//156 174//174 157//157
f 157//157 174//174 175//175
f 157//157 175//175 164//164
f 164//164 175//175 171//171
f 164//164 171//171 158//158
f 158//158 171//171 179//179
f 158//158 179//179 161//161
f 161//161 179//179 178//178
f 161//161 178//178 162//162
f 162//162 178//178 177//177
f 162//162 177//177 163//163
f 163//163 177//177 170//170
f 163//163 170//170 159//159
f 159//159 170//170 169//169
f 159//159 169//169 160//160
f 160//160 169//169 176//176
f 160//160 176//176 165//165
f 165//165 176//176 173//173
f 165//165 173//173 155//155
f 142//142 155//155 8//8
f 8//8 155//155 173//173
f 8//8 173//173 70//70
f 70//70 173//173 151//151
f 26//26 31//31 166//166
f 183//183 30//30 168//168
f 168//168 30//30 29//29
f 168//168 29//29 166//166
f 166//166 29//29 27//27
f 166//166 27//27 26//26
f 183//183 168//168 25//25
f 25//25 168//168 167//167
f 25//25 167//167 16//16
f 20//20 19//19 167//167
f 167//167 19//19 18//18
f 167//167 18//18 16//16
f 58//58 180//180 59//59
f 59//59 180//180 61//61
f 56//56 184//184 182//182
f 182//182 184//184 54//54
f 182//182 54//54 180//180
f 180//180 54//54 62//62
f 180//180 62//62 61//61
f 44//44 46//46 181//181
f 181//181 46//46 48//48
f 181//181 48//48 182//182
f 182//182 48//48 57//57
f 182//182 57//57 56//56
# 356 faces, 0 coords texture

# End of File
